<?xml version="1.0" standalone="no"?>
<!DOCTYPE svg PUBLIC "-//W3C//DTD SVG 20010904//EN"
 "http://www.w3.org/TR/2001/REC-SVG-20010904/DTD/svg10.dtd">
<svg version="1.0" xmlns="http://www.w3.org/2000/svg"
 width="2317.000000pt" height="2317.000000pt" viewBox="0 0 2317.000000 2317.000000"
 preserveAspectRatio="xMidYMid meet">
<metadata>
Created by potrace 1.14, written by Peter Selinger 2001-2017
</metadata>
<g transform="translate(0.000000,2317.000000) scale(0.100000,-0.100000)"
fill="#000000" stroke="none">
<path d="M8758 23134 c-2 -1 -59 -5 -128 -9 -69 -3 -136 -8 -150 -10 -14 -2
-61 -6 -104 -10 -43 -4 -88 -9 -100 -11 -12 -2 -46 -6 -76 -9 -30 -3 -62 -7
-70 -10 -8 -2 -37 -6 -65 -10 -45 -5 -241 -39 -290 -49 -11 -2 -56 -12 -100
-21 -304 -63 -717 -188 -1030 -313 -244 -97 -614 -276 -800 -387 -44 -26 -95
-56 -112 -66 -244 -139 -693 -467 -918 -670 -22 -19 -67 -60 -100 -90 -88 -78
-379 -372 -460 -465 -199 -225 -355 -424 -527 -674 -61 -89 -175 -269 -221
-349 -216 -381 -356 -679 -486 -1034 -52 -143 -106 -303 -116 -347 -2 -8 -13
-46 -25 -85 -20 -67 -76 -284 -86 -334 -3 -12 -11 -51 -19 -85 -22 -94 -67
-353 -80 -456 -4 -30 -9 -62 -10 -70 -3 -16 -12 -98 -21 -187 -3 -32 -7 -74
-9 -93 -25 -199 -25 -869 0 -1080 2 -19 7 -62 10 -95 3 -33 8 -80 10 -105 4
-46 12 -104 20 -150 2 -14 7 -45 10 -70 8 -61 21 -137 50 -285 3 -16 8 -43 11
-60 36 -187 123 -506 206 -750 142 -421 376 -929 564 -1223 19 -29 34 -54 34
-57 0 -21 426 -628 460 -655 3 -3 39 -45 80 -95 144 -175 247 -284 634 -673
215 -216 392 -396 394 -401 1 -4 -167 -179 -375 -388 -440 -442 -478 -481
-647 -683 -113 -135 -106 -127 -195 -245 -500 -662 -864 -1409 -1076 -2210
-19 -71 -36 -141 -39 -155 -3 -14 -12 -52 -20 -85 -8 -33 -17 -76 -20 -96 -3
-20 -8 -42 -10 -50 -3 -8 -7 -30 -10 -49 -3 -19 -8 -45 -10 -56 -2 -12 -7 -37
-10 -55 -3 -19 -12 -77 -20 -129 -9 -52 -18 -117 -21 -145 -3 -27 -7 -66 -10
-85 -12 -92 -22 -206 -32 -366 -13 -220 -6 -785 12 -904 2 -14 6 -59 10 -100
4 -41 8 -86 10 -100 2 -14 7 -46 10 -72 3 -26 10 -80 16 -120 6 -40 13 -89 16
-108 10 -71 65 -339 94 -460 17 -69 32 -132 34 -141 8 -37 97 -331 125 -414
46 -133 91 -256 105 -290 8 -16 42 -97 76 -180 96 -228 272 -571 412 -800 109
-179 369 -549 474 -675 230 -277 546 -609 742 -780 146 -128 319 -267 436
-352 5 -4 24 -18 40 -31 84 -67 386 -265 520 -343 27 -16 59 -34 70 -41 11 -7
27 -15 35 -20 8 -4 38 -20 65 -36 125 -74 552 -277 655 -312 3 -1 16 -6 30
-12 228 -97 723 -253 945 -299 19 -4 31 -6 88 -19 12 -3 33 -7 47 -10 14 -3
36 -7 50 -10 14 -3 50 -9 80 -15 30 -6 66 -12 80 -15 29 -6 84 -14 136 -20 22
-3 46 -7 54 -10 8 -2 40 -7 70 -10 30 -3 66 -8 80 -10 14 -2 57 -6 95 -10 39
-3 86 -8 105 -10 228 -27 878 -27 1125 0 22 2 67 7 100 10 33 3 94 10 135 15
41 5 93 12 115 15 22 2 50 7 61 9 22 5 85 15 119 21 58 8 210 37 215 40 3 2
21 6 40 9 19 3 63 12 97 21 35 9 71 18 81 20 31 6 253 66 322 87 426 130 920
338 1248 525 298 169 656 407 837 554 164 134 340 286 422 363 134 127 5352
5345 5478 5479 78 81 234 262 364 422 55 68 222 302 303 425 404 614 698 1292
872 2010 48 198 100 481 121 655 4 28 8 60 10 72 2 12 7 57 10 100 4 43 9 80
10 83 2 3 7 64 11 135 17 246 10 856 -11 1035 -2 14 -6 54 -9 90 -75 746 -297
1503 -641 2190 -254 508 -551 945 -944 1392 -100 113 -5559 5572 -5671 5670
-41 36 -91 78 -110 94 -19 16 -37 31 -40 34 -13 15 -177 146 -285 227 -608
458 -1326 814 -2059 1023 -80 22 -153 43 -163 45 -172 41 -324 76 -348 80 -16
2 -41 7 -55 10 -14 2 -36 7 -50 10 -24 5 -70 12 -120 20 -59 9 -116 18 -134
21 -11 2 -44 6 -75 9 -31 3 -69 8 -86 10 -16 2 -61 7 -100 10 -38 3 -83 8
-100 11 -85 12 -787 29 -797 18z"/>
</g>
</svg>
